<svg version="1.1" id="Layer_1" xmlns="http://www.w3.org/2000/svg" xmlns:xlink="http://www.w3.org/1999/xlink" x="0px" y="0px"
	 viewBox="0 0 100 100" width="30px" height="30px"  style="enable-background:new 0 0 100 100;" xml:space="preserve">
<style type="text/css">
	.st0{fill:#010101;}
</style>
<g id="sv-left-ball">
	<path id="XMLID_48_" class="st0" d="M22.9,37.2c-3.3,0-5.9-2.7-5.9-5.9s2.7-5.9,5.9-5.9s5.9,2.7,5.9,5.9S26.2,37.2,22.9,37.2z
		 M22.9,29.3c-1.1,0-1.9,0.9-1.9,1.9s0.9,1.9,1.9,1.9s1.9-0.9,1.9-1.9S24,29.3,22.9,29.3z"/>
</g>
<g id="sv-mid-ball">
	<path id="XMLID_45_" class="st0" d="M50,67.7c-3.3,0-5.9-2.7-5.9-5.9c0-3.3,2.7-5.9,5.9-5.9c3.3,0,5.9,2.7,5.9,5.9
		C55.9,65,53.3,67.7,50,67.7z M50,59.8c-1.1,0-1.9,0.9-1.9,1.9s0.9,1.9,1.9,1.9s1.9-0.9,1.9-1.9S51.1,59.8,50,59.8z"/>
</g>
<g id="XMLID_34_">
	<g id="XMLID_33_">
		<path id="XMLID_42_" class="st0" d="M80.4,94.4H19.6c-7.7,0-14-6.3-14-14V19.6c0-7.7,6.3-14,14-14h60.8c7.7,0,14,6.3,14,14v60.8
			C94.4,88.1,88.1,94.4,80.4,94.4z M19.6,9.6c-5.5,0-10,4.5-10,10v60.8c0,5.5,4.5,10,10,10h60.8c5.5,0,10-4.5,10-10V19.6
			c0-5.5-4.5-10-10-10H19.6z"/>
	</g>
	<g id="XMLID_32_">
		<rect id="XMLID_41_" x="20.9" y="18.5" class="st0" width="4" height="63"/>
	</g>
	<g id="XMLID_30_">
		<rect id="XMLID_40_" x="48" y="18.5" class="st0" width="4" height="63"/>
	</g>
	<g id="XMLID_7_">
		<rect id="XMLID_39_" x="75.1" y="18.5" class="st0" width="4" height="63"/>
	</g>
</g>
<g id="sv-right-ball">
	<path id="XMLID_36_" class="st0" d="M77.1,50.3c-3.3,0-5.9-2.7-5.9-5.9s2.7-5.9,5.9-5.9c3.3,0,5.9,2.7,5.9,5.9S80.3,50.3,77.1,50.3
		z M77.1,42.4c-1.1,0-1.9,0.9-1.9,1.9s0.9,1.9,1.9,1.9s1.9-0.9,1.9-1.9S78.1,42.4,77.1,42.4z"/>
</g>
</svg>
