<svg version="1.1" id="Layer_1" xmlns="http://www.w3.org/2000/svg" xmlns:xlink="http://www.w3.org/1999/xlink" x="0px" y="0px"
	 viewBox="0 0 100 100" width="30px" height="30px" style="enable-background:new 0 0 100 100;" xml:space="preserve">
<path d="M90.4,81.5c-8.4,0-11.4-7.2-11.9-8.6V41c0-12.9-8.7-23.9-20.6-27.3c0-0.1,0-0.1,0-0.2c0-4.3-3.5-7.8-7.8-7.8
	c-4.3,0-7.8,3.5-7.8,7.8c0,0,0,0.1,0,0.1c-12.1,3.4-20.9,14.5-20.9,27.6v31.6C21,74.3,18,81.5,9.6,81.5v4H40c0.9,5,5,8.7,10,8.7
	s9.1-3.8,10-8.7h30.5V81.5z M50.2,9.8c1.9,0,3.4,1.3,3.7,3.1c-1.2-0.2-2.5-0.3-3.7-0.3c-1.3,0-2.5,0.1-3.7,0.2
	C46.8,11.1,48.3,9.8,50.2,9.8z M50,90.2c-2.8,0-5.1-2-5.9-4.7h11.7C55.1,88.3,52.8,90.2,50,90.2z M20.3,81.5
	c2.6-2.3,4.2-5.2,4.9-7.3h0.2V41.3c0-13.6,11.1-24.7,24.7-24.7c13.4,0,24.4,10.9,24.4,24.4v33.3h0.2c0.7,2.1,2.3,5,4.9,7.3H20.3z"/>
</svg>
