<svg version="1.1" id="Search_SVG" xmlns="http://www.w3.org/2000/svg" xmlns:xlink="http://www.w3.org/1999/xlink" x="0px" y="0px"
	 viewBox="0 0 100 100" width="30px" height="30px" style="enable-background:new 0 0 100 100;" xml:space="preserve">
<style type="text/css">
	.st0{fill:#010101;}
</style>
<path id="sv-search" class="st0" d="M60.7,6.7C42.6,6.7,28,21.3,28,39.3c0,8.3,3.1,15.9,8.2,21.6L7.3,89.9l2.8,2.8L39,63.8
	c5.8,5.1,13.3,8.2,21.6,8.2c18,0,32.7-14.7,32.7-32.7S78.7,6.7,60.7,6.7z M60.7,68C44.8,68,32,55.2,32,39.3
	c0-15.8,12.9-28.7,28.7-28.7s28.7,12.9,28.7,28.7C89.3,55.2,76.5,68,60.7,68z"/>
</svg>
