<?xml version="1.0" encoding="utf-8"?>
<!-- Generator: Adobe Illustrator 19.0.0, SVG Export Plug-In . SVG Version: 6.00 Build 0)  -->
<svg version="1.1" id="Layer_1" xmlns="http://www.w3.org/2000/svg" xmlns:xlink="http://www.w3.org/1999/xlink" x="0px" y="0px"
	 viewBox="0 0 163.1 100" style="enable-background:new 0 0 163.1 100;" xml:space="preserve">
<style type="text/css">
	.st0{fill:#EF4438;}
</style>
<g>
	<path d="M31.6,30.3h-6.2l-3.5-13.5c-0.1-0.5-0.3-1.5-0.7-3s-0.5-2.5-0.5-3c-0.1,0.6-0.2,1.6-0.5,3s-0.5,2.4-0.7,3l-3.5,13.5H9.9
		L3.3,4.6h5.4l3.3,14c0.6,2.6,1,4.8,1.2,6.7c0.1-0.7,0.2-1.7,0.5-3.1s0.5-2.5,0.7-3.3l3.7-14.4h5.2L27.1,19c0.2,0.6,0.4,1.6,0.6,3
		s0.4,2.5,0.6,3.4c0.1-0.9,0.3-2.1,0.6-3.4s0.5-2.5,0.7-3.3l3.3-14h5.4L31.6,30.3z"/>
	<path d="M65.5,30.3H50.7V4.6h14.8v4.5h-9.4v5.6h8.7v4.5h-8.7v6.6h9.4V30.3z"/>
	<path d="M80.2,4.6h8c3.6,0,6.3,0.5,7.9,1.6s2.5,2.7,2.5,4.9c0,1.5-0.4,2.8-1.1,3.8s-1.7,1.6-2.9,1.8v0.2c1.6,0.4,2.8,1,3.5,2
		s1.1,2.3,1.1,4c0,2.3-0.8,4.2-2.5,5.5s-4,2-6.9,2h-9.6V4.6z M85.7,14.8h3.2c1.5,0,2.5-0.2,3.2-0.7s1-1.2,1-2.3c0-1-0.4-1.7-1.1-2.1
		s-1.9-0.6-3.4-0.6h-2.9V14.8z M85.7,19.1v6.7h3.6c1.5,0,2.6-0.3,3.3-0.9s1.1-1.5,1.1-2.6c0-2.1-1.5-3.2-4.6-3.2H85.7z"/>
	<path d="M6.6,73.5V47.8H12V69h10.4v4.5H6.6z"/>
	<path d="M59.6,60.6c0,4.3-1.1,7.5-3.2,9.8s-5.1,3.4-9.1,3.4s-7-1.1-9.1-3.4s-3.2-5.6-3.2-9.8s1.1-7.5,3.2-9.8
		c2.1-2.3,5.1-3.4,9.1-3.4s7,1.1,9.1,3.4C58.5,53.1,59.6,56.4,59.6,60.6z M40.8,60.6c0,2.9,0.5,5,1.6,6.5s2.7,2.2,4.9,2.2
		c4.3,0,6.5-2.9,6.5-8.7c0-5.8-2.2-8.7-6.5-8.7c-2.2,0-3.8,0.7-4.9,2.2S40.8,57.8,40.8,60.6z"/>
	<path d="M84,59.1h10.2v13.3c-1.7,0.5-3.2,0.9-4.7,1.1s-3,0.3-4.5,0.3c-3.9,0-6.8-1.1-8.9-3.4s-3.1-5.6-3.1-9.8
		c0-4.1,1.2-7.4,3.6-9.7c2.4-2.3,5.7-3.5,9.9-3.5c2.6,0,5.2,0.5,7.6,1.6l-1.8,4.4c-1.9-0.9-3.8-1.4-5.9-1.4c-2.4,0-4.2,0.8-5.7,2.4
		s-2.1,3.7-2.1,6.4c0,2.8,0.6,4.9,1.7,6.4s2.8,2.2,5,2.2c1.1,0,2.3-0.1,3.5-0.4v-5.4H84V59.1z"/>
	<path d="M109.7,73.5V47.8h5.4v25.7H109.7z"/>
	<path d="M141.9,52c-2.1,0-3.6,0.8-4.8,2.3s-1.7,3.7-1.7,6.4c0,5.7,2.2,8.6,6.5,8.6c1.8,0,4-0.5,6.6-1.4v4.6
		c-2.1,0.9-4.5,1.3-7.1,1.3c-3.7,0-6.6-1.1-8.6-3.4s-3-5.5-3-9.8c0-2.7,0.5-5,1.5-7s2.4-3.6,4.2-4.6c1.8-1.1,4-1.6,6.4-1.6
		c2.5,0,5,0.6,7.5,1.8l-1.8,4.4c-1-0.5-1.9-0.9-2.9-1.2S142.8,52,141.9,52z"/>
</g>
<g>
	<path class="st0" d="M151.7,91.8H7c-1.9,0-3.5-1.6-3.5-3.5s1.6-3.5,3.5-3.5h144.7c1.9,0,3.5,1.6,3.5,3.5S153.6,91.8,151.7,91.8z"/>
</g>
</svg>
