<?xml version="1.0" encoding="utf-8"?>
<!-- Generator: Adobe Illustrator 19.0.0, SVG Export Plug-In . SVG Version: 6.00 Build 0)  -->
<svg version="1.1" id="Layer_1" xmlns="http://www.w3.org/2000/svg" xmlns:xlink="http://www.w3.org/1999/xlink" x="0px" y="0px"
	 viewBox="0 0 80 50" style="enable-background:new 0 0 80 50;" xml:space="preserve">
<style type="text/css">
	.st0{fill:#B72025;}
	.st1{fill:#EF4438;}
</style>
<g id="XMLID_1_">
	<polygon id="XMLID_3_" class="st0" points="77,16.5 77,1.8 54.2,1.8 39,48.2 39,49.3 77,49.3 77,48.2 77,33.2 65.5,33.2 65.5,39.4 
		54.9,39.4 54.9,28.6 67.5,28.6 67.5,19.7 54.9,19.7 54.9,10.6 65.5,10.6 65.5,16.5 	"/>
	<path id="XMLID_7_" class="st1" d="M20.6,14.4c0-2.3,2.7-3.5,4.6-3.5c4.6,0,8.5,2.8,8.5,7.7h6.5l5.5-16.7c-5.2,0-10.3,0.1-15.4-0.4
		c-1.4-0.1-2.7-0.2-4.1-0.3C24,1,21.8,0.7,19.7,0.7C13.2,0.7,3.9,5.1,3.9,15c0,16.9,25.5,14.7,25.5,19.9c0,2.8-3.3,3.3-5.6,3.3
		c-2.8-0.1-8.4-1.1-8.4-6.6H3v17.7h25.7c0.2,0,0.3,0,0.5,0c0.3,0,0.6,0,0.9,0l8.4-25.7C30.8,19.6,20.6,18.6,20.6,14.4z"/>
</g>
</svg>
