<?xml version="1.0" encoding="utf-8"?>
<!-- Generator: Adobe Illustrator 19.0.0, SVG Export Plug-In . SVG Version: 6.00 Build 0)  -->
<svg version="1.1" id="Layer_1" xmlns="http://www.w3.org/2000/svg" xmlns:xlink="http://www.w3.org/1999/xlink" x="0px" y="0px"
	 viewBox="0 0 138 100" style="enable-background:new 0 0 138 100;" xml:space="preserve">
<style type="text/css">
	.st0{fill:#EF4438;}
	.st1{fill:#B72025;}
</style>
<g>
	<path class="st0" d="M93.1,20.6h-21v10.9h4.6l-2.9,12.8c-0.8,3.5-2.2,12.3-2.5,16h-0.4c-0.4-4.2-1.3-11.1-2.5-16.5l-5.3-23.2H45.6
		l-4.2,18.9c-1.7,8-3.9,18.5-4.1,20.8h-0.4c-0.3-2.5-1.8-12.5-2.7-16.5L32,31.6h4.9V20.6H9.2v10.9h4.7l11.1,47.8h19.5l5.1-20.2
		c0.6-2.4,1.7-7.7,2-10.2h0.3c0.4,2.6,1.3,7.6,2.1,10.4l5,20h19.3L93.1,20.6z"/>
	<polygon class="st1" points="114.7,57.5 114.7,68.2 103.9,68.2 103.9,31.7 108.4,31.7 108.4,20.6 98.9,20.6 86.4,68 86.4,68.2 
		86.4,68.2 83.5,79.4 128.8,79.4 128.8,57.5 	"/>
</g>
</svg>
